<svg width="800" height="800" viewBox="0 0 800 800" fill="none" xmlns="http://www.w3.org/2000/svg">
<g clip-path="url(#clip0_1_2)">
<path d="M783.831 319.667C768.166 282.692 742.353 251.358 709.013 228.802C692.342 217.517 674.166 208.875 654.987 202.977C635.441 196.709 614.756 193.577 593.581 193.577C566.752 193.577 540.559 198.595 515.994 208.619C514.745 209.12 513.484 209.622 512.359 210.123C511.613 210.503 510.855 210.748 510.23 211.127C488.92 220.527 469.373 233.561 451.822 249.975C446.316 255.237 441.05 260.759 436.156 266.522C428.384 275.42 419.866 286.081 409.341 300.244L403.819 307.512C398.936 314.147 353.441 380.827 345.291 392.981C342.156 397.741 338.522 403.005 334.642 408.525L327.875 418.169C319.98 429.453 310.58 442.109 301.425 453.895C297.166 459.281 292.906 464.422 289.272 468.681C285.759 472.819 282.503 476.073 280.252 478.205C270.472 487.605 259.188 494.752 246.788 499.77C233.997 505.033 220.339 507.666 206.422 507.666C196.778 507.666 187.255 506.405 177.978 503.772C176.216 503.405 174.587 502.903 172.837 502.28C170.084 501.398 167.319 500.272 164.564 499.147C145.261 490.995 128.848 477.581 117.184 460.162C111.297 451.387 106.659 441.866 103.647 432.086C100.392 421.18 98.7641 410.655 98.7641 400.005C98.7641 385.586 101.653 371.548 107.161 358.147C115.313 338.967 128.85 322.541 146.266 310.767C154.784 305.002 164.32 300.486 174.466 297.353C184.992 293.975 195.775 292.347 206.302 292.347C220.584 292.469 234.256 295.1 246.789 300.106C259.322 305.369 270.595 312.639 280.253 321.672C282.627 323.923 285.761 327.437 289.273 331.316C295.539 338.709 303.311 348.366 311.452 359.27C312.956 361.278 314.341 363.152 315.845 365.158C328.122 346.983 366.48 290.705 371.744 283.57L374.755 279.433C371.12 274.916 367.484 270.534 363.848 266.52C357.948 259.753 353.188 254.611 348.183 249.85C329.383 232.177 307.817 218.395 284.133 208.616C259.445 198.591 233.255 193.573 206.423 193.573C178.48 193.573 151.408 199.092 125.961 209.877C89.2422 225.286 57.7875 251.234 35.2172 284.575C24.0625 300.989 15.4219 319.164 9.15625 338.589C3.13281 358.514 0 379.077 0 400.006C0 427.95 5.38594 454.902 16.1687 480.347C31.7141 517.187 57.525 548.52 90.8672 571.212C107.659 582.362 125.836 591.138 145.014 597.147C164.817 603.291 185.367 606.423 206.42 606.423C233.25 606.423 259.442 601.283 284.13 591.381C306.063 582.361 326.247 569.828 344.166 553.659C345.548 552.533 346.797 551.272 348.044 550.147C353.442 545.264 358.325 539.878 363.845 533.477C371.741 524.456 380.136 513.808 390.784 499.77L396.183 492.5C399.316 488.241 424.627 451.144 445.055 421.303C456.841 404.008 466.62 389.725 468.494 386.972L472.128 381.953C480.905 369.42 490.305 356.642 498.578 346.103C502.837 340.717 507.097 335.578 510.731 331.317C514.244 327.181 517.5 323.925 519.752 321.795C529.408 312.639 540.68 305.369 553.092 300.242C556.227 298.981 559.359 297.855 562.248 296.973C565.247 296.105 568.136 295.345 571.269 294.72C578.539 293.216 585.931 292.469 593.447 292.347C608.366 292.469 622.528 295.345 635.441 300.866C654.742 309.005 671.156 322.419 682.82 339.836C688.83 348.611 693.345 358.147 696.345 368.036C699.613 378.317 701.241 389.1 701.241 400.005C701.241 414.545 698.352 428.572 692.845 441.864C684.57 461.166 671.156 477.58 653.741 489.242C644.842 495.252 635.442 499.769 625.541 502.767C615.138 506.036 604.353 507.664 593.583 507.664C579.666 507.664 566.008 505.033 553.216 499.769C540.817 494.75 529.533 487.603 519.753 478.337C517.38 476.073 514.245 472.573 510.609 468.558C504.845 461.913 497.575 452.77 488.297 440.48C486.913 438.73 485.666 436.845 484.281 434.973C481.65 438.731 479.019 442.745 476.142 446.87C444.933 492.498 431.395 512.167 428.519 516.305L425.252 520.698C429.022 525.08 432.522 529.473 436.034 533.355C441.677 540 446.819 545.508 451.823 550.147C470.623 567.822 492.177 581.603 515.873 591.381C540.561 601.284 566.752 606.423 593.583 606.423C621.525 606.423 648.477 601.039 673.909 590.256C710.764 574.713 742.219 548.775 764.775 515.436C776.183 498.386 784.959 480.209 790.723 461.409C796.869 441.606 800.002 421.056 800.002 400.003C800 372.173 794.614 345.111 783.831 319.667Z" fill="white"/>
</g>
<defs>
<clipPath id="clip0_1_2">
<rect width="800" height="800" fill="white"/>
</clipPath>
</defs>
</svg>
